<svg id="Layer_1" data-name="Layer 1" xmlns="http://www.w3.org/2000/svg" viewBox="0 0 192 192"><title>android-icon-192x192</title><path d="M211,493q0-96,0-192H403q0,96,0,192ZM316,354.4c0,23.12,0,46.24-.12,69.36,0,1.18-1.65,2.41-2.66,3.5a37.48,37.48,0,0,1-2.93,2.6c1.29.75,2.54,2.08,3.86,2.14,5.32.24,10.66.22,16,0,1.17,0,2.28-1.32,3.42-2-1-.86-1.87-2.38-2.9-2.47-3.27-.27-4.15-1.86-4.1-4.9.2-11.15.19-22.31.34-33.47a6.43,6.43,0,0,1,1-3.68c2.93-3.71,13.89-6.27,18.7-4.46,5.84,2.19,6.2,7.46,6.37,12.44.34,9.82.27,19.65.42,29.47,0,2.44-.41,4.13-3.32,4.58-1,.16-1.85,1.7-2.76,2.61,1,.66,2,1.86,3.06,1.89,5.82.19,11.66.22,17.48,0,1.15,0,2.24-1.43,3.37-2.19-1-.8-2-2.23-3-2.28-3.64-.18-4.37-2.15-4.28-5.29.22-7.82.37-15.65.33-23.48a88,88,0,0,0-.78-13.44c-1.4-8.78-5.74-12.27-14.57-12.66a30.64,30.64,0,0,0-18,5.11c-1.17.73-2.41,1.36-4,2.23,0-10.34,0-20,0-29.62,0-2.68-.55-4.85-3.75-4.54-5.4.52-10.77,1.31-16,2C305.64,355.54,312.3,351.9,316,354.4Zm-67.68.69c0,1,0,2.78,0,4.58.19,18.49.34,37,.59,55.46.21,15.64.26,15.64,15.66,18,16.09,2.51,30.84-7,33.87-23.09a52.81,52.81,0,0,0-.33-20.68c-3.47-15.66-20.1-22-33.74-13.51-1.2.74-2.42,1.43-4.41,2.59,0-2.43,0-4,0-5.65,0-7.49,0-15,.13-22.48.06-3.44-1.29-5-4.79-4.49-4.92.66-9.86,1.25-14.71,1.86C238.44,355.58,245.83,351.71,248.3,355.09Z" transform="translate(-211 -301)"/><path d="M259.85,405.29c0-5.32-.35-10.68.16-16a9.92,9.92,0,0,1,3.53-6.39c7.72-5.59,17.56-3.11,21.23,5.66a36.85,36.85,0,0,1-1.06,31.86c-2.84,5.62-7.88,8.49-14.28,8.39-7.93-.12-9.85-2.19-9.81-10.09,0-4.49,0-9,0-13.48Z" transform="translate(-211 -301)"/></svg>